<svg id="Calque_1" data-name="Calque 1" xmlns="http://www.w3.org/2000/svg" viewBox="0 0 555.05 675.92"><defs><style>.cls-1{stroke:#000;stroke-miterlimit:10;}</style></defs><title>pf_logo_mirrored</title><g id="Calque_1-2" data-name="Calque 1-2"><path class="cls-1" d="M555,516.8V4L518.21,21.67s-29.86-4.51-41.85-1.9S441.11,34,424.17,41s-36.41,13.42-48.84,14-74.52,37.22-73.48,54.71,11.31,70.49,11.31,70.49-10.53,12.94-16.75,36.17c0,0-17.68,74.31-18.11,80.19q-.39,5.2-.27,10.43s.4,6.95,1.27,10,5.11,11.46,5.11,11.46,6.31,12.1,5.62,23.49c-4.69,10.33-12.95,17-16.08,24.5l-8.17,15.07-10.47,25s-9.77,22.23-2.55,31.15,19.65,12.51,19.65,12.51a195.87,195.87,0,0,0,22.73,0,35.6,35.6,0,0,0-1.28,16.46c5.94,8.66,12,13,16.59,14,1.05,3,3.52,3.52,9.13,8.61-4,3.52-5,11.47-5,11.47,6.91,10.82,8.61,33.63,8.61,33.63s-4,14.46-.52,29.46,17.73,25.56,17.73,25.56c7.56,5.34,16,9.91,33.37,11.47s44.27-8.15,49.54-9.91,33.24-12.51,44.32-19.29,54.23-41.72,54.23-41.72L555,516.84"/><path d="M90.77,591c-4.17,3-5.64,4.35-7.24,6.76-2.4,3.55-3.34,5.62-4,8.88-.83,4-.48,9.5,1.24,18.5,2,10.72,2.52,12.21,7.37,20.78a86.22,86.22,0,0,0,8.32,12.56,75,75,0,0,0,11.55,9.8,56.18,56.18,0,0,0,14.74,6.84,15.55,15.55,0,0,0,6.7.71,60.23,60.23,0,0,0,14.94-3.41,83.59,83.59,0,0,0,16.66-7.62,51.86,51.86,0,0,0,8.16-5.62c6.16-5,11.82-10.64,19.62-19.58,3.85-4.38,7.54-8.65,8.16-9.48,4.07-5.17,11.75-15.09,12.45-16.09.47-.64,2.87-4.2,5.35-7.94s5.22-7.82,6.08-9.08l3.54-5.33c4.73-7.2,5.73-8,17.26-22C252,557,252,557,252.32,555.77a13.9,13.9,0,0,0,.31-2.48c0-1.17-.11-1.45-1.3-3.29L250,548l2.46-3.63c5.7-8.43,9.07-12.67,16.45-19.49,5.37-4.78,8.51-8,26.11-13.3,6.18-1.87,12.28-3,22.28-4.21,5-.65,5.2-.64,7.41,0a30.12,30.12,0,0,0,3.37.83c1,.15,1.17.06,2.17-.74a11.76,11.76,0,0,0,3-5.26,8.72,8.72,0,0,0-.38-3c-.6-2.32-1.56-3.77-4.06-6.17-1.17-1.15-1.54-1.34-3.66-1.89a22.38,22.38,0,0,0-3.36-.64,13.1,13.1,0,0,0-5.83,2,7.31,7.31,0,0,1-2.5,1.07c-.47,0-3.58.52-6.9,1.09a162.11,162.11,0,0,0-20.24,4.9c-16.8,5.28-16.73,7.66-21.73,10-3.64,2.54-7.19,5.08-7.89,5.72s-2.15,1.79-3.15,2.64c-5.2,4.32-7.44,5.85-11.89,11.38-3.92,4.85-6.43,6.84-8.92,7.12a6.13,6.13,0,0,0-2.24.68c-.79.5-4.4,3.86-22.79,27.21-3.06,3.91-6.26,7.83-7.06,8.83s-3.76,4.57-6.56,8c-5.38,6.53-5.94,7.16-14.1,16.16a116.07,116.07,0,0,1-9.61,9.6c-4.45,4-4.47,4-6.31,4.66-2,.74-2.89.74-5.1-.26l-1.3-.61-1.45-2.8c-2.13-4.07-9.58-15.91-12.13-19.28a31.57,31.57,0,0,0-7-6.94l-1.88-1.44-4.1-.47a43.27,43.27,0,0,0-13,.35c-4.6.78-5.35,1-14.08,4.28S95.25,587.71,90.77,591Z"/><path d="M134,592.65l.44.74c-2.14,1.44-4.09,3.53-6.45,4.21-13.13,3.81-25.52,2.44-35.57-7.56a33.59,33.59,0,0,0-17.8-9.86C63.66,578,58,568.42,61,557.66c.9-3.25,2.85-6.25,4.55-9.25,2-3.46,3.74-6.65,2.88-11C66,524.8,73,515.29,85.79,513.5c4.28-.59,8.65-.55,13.1-.81.16-6.16,1.73-11.58,6.86-15.49a3.71,3.71,0,0,0,.91-3.18c-1.3-5.19-2.77-10.31-4.3-15.83-2,.7-3.82,1.23-5.55,1.91C77,487.89,48,474.66,55.81,444c.67-2.64,1-5.41,1.5-8.41-11.26,1.69-20.06-1-26.26-10.24-6.43-9.61-4.17-18.77,1.83-27.92-2.27-.66-3.9-1.18-5.56-1.61-20.12-5.19-29-18.33-26.38-39,1.49-11.85,7.84-20.72,16.65-28.26,1.17-1,2.39-3.25,2-4.38-3.89-11.22.15-19.56,9.33-25.75,3.69-2.48,4.17-4.6,2.94-8.81C25,266,34,248.19,56.86,239.19c2.3-.91,4.64-1.74,6.79-2.54-1.77-5.09-3.91-9.71-5-14.56C55.91,209.89,62,198.5,74,195.5a49.45,49.45,0,0,1,21.85-.63c15.1,3.3,27.52,11.73,38,23.38,11.47,12.73,17.17,27,15,44.17a5.72,5.72,0,0,0,1.91,4.56c11.36,7.65,16,19,18.36,31.87,2.69,14.73-5.2,28.08-19.49,32.47A85.17,85.17,0,0,1,139,333.65c-8.39,1.47-8.6,1.43-8.44,9.77.24,12.82-4.16,22.82-16,28.82a12.64,12.64,0,0,0-2.23,1.83c13.86,17.11,16.13,35.1,5.67,54.39,27.83,4.61,29.62,6.61,28.83,31.61,2-.07,4-.17,6-.07,11.31.63,18.25,7.35,18.47,18.63a33.48,33.48,0,0,1-2,13c-1.94,4.79-1.12,8,1.55,12.28,11,17.7.33,37.69-20.46,38.78-4.06.22-8.2-.08-12.2-.08-3.3,22.32-8.37,25.32-32.37,19.32-.13.37-.25.74-.35,1.12A13.38,13.38,0,0,0,115,579.39c4.86,1.41,9.75,2.74,15.11,4.25-7.48,4.79,11.37,14.89,4.22,9.79"/><path d="M113.61,558.66c10,3.61,18.64-2.44,18.87-13,.08-3.85-.24-7.72-.37-11.36,3.1.92,6,2.58,8.7,2.4A68.63,68.63,0,0,0,155.64,534c6.9-2,11.66-6.68,14.36-13.4a16.23,16.23,0,0,0-1-15c-2.47-4.37-6.09-3.77-10.28-2.37,5.12-9.81,9.62-19.23,3.12-29.17-5.14-7.87-12.81-10.72-22.52-7.48,1.08-3.81,2.14-6.93,2.84-10.13,1.47-6.65.56-12.9-5.44-16.9-8.79-5.81-18.2-7.48-28.2-2.48-3.09,1.54-6.42,2.59-9.64,3.86l-1.34-1.53c12.9-6.3,20-16.35,20.9-30.35,1-16.05-5.21-30.86-14-33.17,5.67,13.85,14.16,27.6,1.29,42.28-.21-.62-.42-.91-.37-1.13.33-1.38.73-2.74,1.06-4.12,2.49-10.4,2.7-20.39-5.08-29-2.85-3.16-5.58-6.44-8.45-9.59-3.37-3.68-6.84-7.27-10.27-10.9,12.56,3.81,24.63,6.75,35.15-4.1,6.41-6.58,9.43-17,7-24.17a43.74,43.74,0,0,1-2.46,4.76C119,344.81,115.91,350,112,354.5c-3.35,3.88-8,5.26-13.78,2.6,11.84-5.32,18.78-14.61,17.49-26.43-1.17-10.82-5.1-22.24-20.89-23,6.74-1.46,12.55-1.3,16.55-4s6.16-8.16,9.16-12.53c3,9.92-5.34,13.86-10.34,19.53,4.37,8.63,10.86,14.2,20.37,15.44a34.93,34.93,0,0,0,28.47-8.92,14.54,14.54,0,0,0,4.57-9c1.18-14.22-1.82-27.36-12.82-37.5-3-2.81-6.53-5.12-10.53-8.12l5.66.7c6.78-31.26-26.1-60.94-48.59-64.94l3.82,4.61c-19-6.6-27-5.24-33.68,5.26-5,7.88-3.21,18.55,5.16,27.29-1.4-7-5.94-13.27-.4-21.16-.31,12.49,7.62,18.43,15.44,24.43a46.26,46.26,0,0,1,6.87,5.77c3,3.46,6.07,7,8.07,11a20.65,20.65,0,0,1-.12,19.73c-1.19-4.34-1.92-8.06-3.19-11.58C95,251.47,85.88,244.09,74.67,244.23a55.78,55.78,0,0,0-15.82,2.38c-16.82,5.3-27.53,24-23.9,41.3.5,2.42,2,4.63,3.08,6.93,2.2-24.11,3.3-27.41,11.2-29.89-6.5,13.46-5.54,26.52,1.57,40.41-9.49-4.31-17.09-4.05-23.59,2.57-5.17,5.27-5.16,11.71-4.34,18.56L49.38,317c.21.51.42,1,.62,1.51-.84.58-1.64,1.23-2.53,1.75-10.32,6-11.23,11.29-3.47,20.29,1.77,2.06,3.52,4.13,5.58,6.55-10.51,3-14.63-4.42-19.73-10C20.4,340,17.69,348.17,14.4,356c-.83-5.65.19-10.88,3.52-15.19,3.16-4.08,7-7.61,10.77-11.56C18.17,332,11.72,338.44,10,349c-1.82,11.34-3.22,22.78,6.5,31.83a16.42,16.42,0,0,0,1.88,1.44c11.28,7.71,22.9,8.23,34.73,1.41,3.58-2.08,7-4.58,11.58-7.58-.72,3.28-.94,5.58-1.72,7.67-3.38,9.09-11,11.93-19.75,13-6.24.73-8.54,2.89-9.79,9C30.73,419.19,42.31,432,57,431.19c-4.41-3.28-11-3.6-12.5-10.6l21.75,5.22c-1.44,8.06-3.61,15.42-3.91,22.86-.63,16,10,25.8,25.82,24.56,5.33-.41,10.61-1.49,15.91-2.31,2.11-.33,4.21-.79,6.71-1.27-.54,8.15.14,15.73,6.37,20.55,5.51,4.26,12.07,7.09,18.51,10.75-3.29.44-6.52,1-9.78,1.28-7,.59-10.2,3.32-11.67,10.21-.46,2.18-.81,4.38-1.33,7.29-4.54-7.28-1.74-13.7.11-20.58a10.73,10.73,0,0,0-6.86,9c-1.53,10,1.34,18.33,10.76,24.33-6,.84-9.9-1.53-12-5.53-3.67-7-8.87-7.46-15.34-5.11-1.33.48-2.77.67-4.09,1.16"/><path d="M555,179.74c-45.75,2.61-90.12,11.26-131.3,40.36-38.2,27.05-86.75,28.9-132.51,34.22a700.09,700.09,0,0,1-71.47,5.22c-8.16.12-22.09-4.63-23.29-9.63-1.82-7.54,2.79-19.84,8.94-25.42,11.81-10.71,26.62-18.11,42.37-28.31-9.2-25-2.93-50.28,15.8-71.09,14.6-16.23,31.28-31.59,49.66-43.17,31.08-19.57,64.59-35.22,96.43-53.65C455.82,1.5,503.57-5.49,555,4V179.74"/></g></svg>